<?xml version="1.0" encoding="utf-8"?>
<!-- Generator: Adobe Illustrator 28.1.0, SVG Export Plug-In . SVG Version: 6.00 Build 0)  -->
<svg version="1.1" id="Layer_1" xmlns="http://www.w3.org/2000/svg" xmlns:xlink="http://www.w3.org/1999/xlink" x="0px" y="0px"
	 viewBox="0 0 874.4 357" style="enable-background:new 0 0 874.4 357;" xml:space="preserve">
<style type="text/css">
	.st0{fill:#28ABE2;}
</style>
<path class="st0" d="M874.4,51.9c-4.1-3.7-13.6-6.5-25.2-8.9c11.6-0.3,19.8-3.8,22.2-12.4c-3.6-2.9-10-4.4-18.8-4.9
	c9.2-2.7,14.7-6.5,13.3-12.4c-4.3-1.9-11.3-2.4-19.8-2c5.6-2.5,7.7-6.3,6.4-11.4c-20.4,1.4-39.4,4.5-56.4,9.9
	c-15.8,4.9-56.5,11.7-94.4,18.3c-21.6,0.2-43,4.1-63.3,11.4c-15.7,6-33,15.5-50.9,26.7c-23.7,5.3-49.3,8.9-76.1,11.4
	c-20.5-2.5-36.6-15.5-45-47c-4.6-13.3-14.8-18.9-29.3-18.4c-14.5-0.5-24.7,5.1-29.3,18.4c-8.3,31.5-24.5,44.4-45,47
	c-26.9-2.5-52.4-6.1-76.1-11.4c-18-11.2-35.2-20.7-50.9-26.7c-20.3-7.3-41.7-11.1-63.3-11.4c-38-6.6-78.6-13.4-94.4-18.3
	C61.2,4.5,42.1,1.4,21.8,0c-1.3,5,0.8,8.8,6.4,11.4c-8.5-0.4-15.4,0.1-19.8,2c-1.3,5.9,4.2,9.7,13.4,12.4C13,26.3,6.6,27.8,3,30.7
	c2.5,8.6,10.6,12,22.2,12.4C13.6,45.4,4.1,48.2,0,51.9c3.5,6.9,9.6,10.6,18.3,11.4c-3.8,1.2-6.6,2.8-7.9,4.9
	c4.2,6.4,11.3,10.9,21.3,13.4c-4.4,1-7.9,2.6-10.4,4.9c4.6,7.2,11.6,12.1,20.8,14.8c-4.2,2.9-7.9,5.7-6.9,8.9
	c3.8,6.1,11.7,10.3,21.7,13.4c-2.8,2.6-4,4.7-4,6.4c7,7.8,13.9,10.7,20.8,11.4l1,4c6.7,10.2,16.4,11.1,27.2,8.9l1.5,3
	c4.2,5.7,11,8.2,19.8,8.4c2.6,13.6,11.9,17.6,24.7,16.3c6.3,7.9,14.2,10.5,23.2,9.4c-0.1,3.9,1.8,7.6,4.9,9.9
	c4.6,3.2,10.3,3.5,16.8,2c0.6,3.6,2.8,6.6,5.9,8.4c4.9,2.9,10.5,2.2,16.3-0.5c0.1,3.8,2.3,7,5.9,9.9c5.1,2.3,10.8,2.5,16.8,1
	c1.3,4.5,4.6,8.8,9.4,12.8c5.9-0.9,11.4-3.5,15.8-7.4c0.5,4.8,3.2,9.1,6.9,13.3c8.2,0.6,15.2-5.2,21.3-15.8
	c2.6,10.5,7.6,16,14.8,16.8c4.1,0.4,8.2-1.1,12.4-4c2,2.8,5.4,4.3,8.9,4c8.1-1.8,13.6-6.6,17.8-12.8c3.4,5.3,8.4,9.1,14.3,11.9
	c4.2-2.1,10.3-7.3,16.8-13.3c2.2,9.6-1.7,16.3-11.4,20.3c-17.7,13.8-32.4,27.3-39.5,40c-1.8,2.8-2.3,6.2-1.5,9.4
	c3.1,2.1,6.7,3.3,10.4,3.5c-2.5,3.9-3.7,7.4-3.5,10.4c1.7,5,4.5,7.9,8.4,8.9c3.3,0.1,6.6-0.8,9.4-2.5c-0.5,3.3,1,6.4,3.5,9.4
	c4.5,3.8,10.1,3.6,16.3,1.5c0.7,5.5,2.8,9.3,5.9,11.9c5.1,2.2,10.3,1.6,15.8-2.5c1.1,5.8,3.4,10.8,7.4,14.3c5.3,1.3,10.9-0.3,16.8-4
	c2.5,3.8,6.2,6.7,10.4,8.4c4.2,0.9,8,0.7,11.3-1.2l1.2-0.2l1.2,0.2c3.2,1.8,7.1,2,11.3,1.2c4.2-1.7,7.8-4.6,10.4-8.4
	c5.9,3.7,11.5,5.3,16.8,4c4-3.6,6.3-8.5,7.4-14.3c5.5,4.1,10.8,4.7,15.8,2.5c3.1-2.6,5.2-6.4,5.9-11.9c6.2,2.1,11.9,2.3,16.3-1.5
	c2.5-3,4-6.1,3.5-9.4c2.8,1.7,6.1,2.5,9.4,2.5c3.9-1,6.7-3.9,8.4-8.9c0.3-3-1-6.4-3.5-10.4c3.7-0.2,7.3-1.4,10.4-3.5
	c0.9-3.2,0.3-6.6-1.5-9.4c-7.1-12.7-21.9-26.2-39.5-40c-9.7-4-13.6-10.7-11.4-20.3c6.5,6,12.6,11.2,16.8,13.3
	c5.9-2.8,10.9-6.6,14.3-11.9c4.2,6.2,9.7,11.1,17.8,12.8c3.5,0.3,6.9-1.2,8.9-4c4.2,2.8,8.3,4.4,12.4,4c7.2-0.8,12.2-6.3,14.8-16.8
	c6.1,10.6,13.1,16.4,21.3,15.8c3.7-4.2,6.4-8.6,6.9-13.3c4.4,4,9.9,6.5,15.8,7.4c4.8-4.1,8.1-8.3,9.4-12.8c6.1,1.5,11.7,1.3,16.8-1
	c3.6-2.9,5.9-6.1,5.9-9.9c5.9,2.7,11.4,3.4,16.3,0.5c3.1-1.8,5.3-4.8,5.9-8.4c6.5,1.5,12.2,1.3,16.8-2c3.2-2.3,5-6,4.9-9.9
	c9,1.1,16.9-1.5,23.2-9.4c12.8,1.2,22.1-2.8,24.7-16.4c8.8-0.2,15.5-2.8,19.8-8.4l1.5-3c10.8,2.2,20.5,1.3,27.2-8.9l1-4
	c6.9-0.6,13.8-3.6,20.8-11.4c0-1.8-1.1-3.8-4-6.4c10-3.1,18-7.2,21.8-13.4c1-3.2-2.7-6-6.9-8.9c9.1-2.7,16.1-7.6,20.8-14.8
	c-2.5-2.3-6-4-10.4-4.9c10-2.5,17.1-7,21.3-13.4c-1.3-2.2-4.1-3.8-7.9-4.9C864.7,62.5,870.9,58.8,874.4,51.9z"/>
</svg>
